<svg aria-hidden="true" style="position: absolute; width: 0; height: 0; overflow: hidden;" version="1.1" xmlns="http://www.w3.org/2000/svg" xmlns:xlink="http://www.w3.org/1999/xlink">
<defs>
<symbol id="icon-palette" viewBox="0 0 20 20">
<title>palette</title>
<path d="M15.74 2.608c-3.528-1.186-7.066-0.961-10.72 1.274-2.853 1.743-4.718 6.076-4.103 9.182 0.728 3.671 4.351 5.995 9.243 4.651 5.275-1.449 6.549-4.546 6.379-5.334s-2.665-1.652-1.718-3.498c1.188-2.313 3.129-1.149 3.982-1.622 0.855-0.472 0.539-3.442-3.063-4.653zM12.094 13.314c-0.798 0.218-1.623-0.256-1.843-1.059-0.221-0.805 0.248-1.631 1.046-1.849s1.622 0.254 1.843 1.059c0.22 0.803-0.248 1.631-1.046 1.849z"></path>
</symbol>
<symbol id="icon-pencil2" viewBox="0 0 32 32">
<title>pencil2</title>
<path d="M12 20l4-2 14-14-2-2-14 14-2 4zM9.041 27.097c-0.989-2.085-2.052-3.149-4.137-4.137l3.097-8.525 4-2.435 12-12h-6l-12 12-6 20 20-6 12-12v-6l-12 12-2.435 4z"></path>
</symbol>
<symbol id="icon-images" viewBox="0 0 36 32">
<title>images</title>
<path d="M34 4h-2v-2c0-1.1-0.9-2-2-2h-28c-1.1 0-2 0.9-2 2v24c0 1.1 0.9 2 2 2h2v2c0 1.1 0.9 2 2 2h28c1.1 0 2-0.9 2-2v-24c0-1.1-0.9-2-2-2zM4 6v20h-1.996c-0.001-0.001-0.003-0.002-0.004-0.004v-23.993c0.001-0.001 0.002-0.003 0.004-0.004h27.993c0.001 0.001 0.003 0.002 0.004 0.004v1.996h-24c-1.1 0-2 0.9-2 2v0zM34 29.996c-0.001 0.001-0.002 0.003-0.004 0.004h-27.993c-0.001-0.001-0.003-0.002-0.004-0.004v-23.993c0.001-0.001 0.002-0.003 0.004-0.004h27.993c0.001 0.001 0.003 0.002 0.004 0.004v23.993z"></path>
<path d="M30 11c0 1.657-1.343 3-3 3s-3-1.343-3-3 1.343-3 3-3 3 1.343 3 3z"></path>
<path d="M32 28h-24v-4l7-12 8 10h2l7-6z"></path>
</symbol>
<symbol id="icon-bullhorn" viewBox="0 0 32 32">
<title>bullhorn</title>
<path d="M32 13.414c0-6.279-1.837-11.373-4.109-11.413 0.009-0 0.018-0.001 0.027-0.001h-2.592c0 0-6.088 4.573-14.851 6.367-0.268 1.415-0.438 3.102-0.438 5.047s0.171 3.631 0.438 5.047c8.763 1.794 14.851 6.367 14.851 6.367h2.592c-0.009 0-0.018-0.001-0.027-0.001 2.272-0.040 4.109-5.134 4.109-11.413zM27.026 23.102c-0.293 0-0.61-0.304-0.773-0.486-0.395-0.439-0.775-1.124-1.1-1.979-0.727-1.913-1.127-4.478-1.127-7.223s0.4-5.309 1.127-7.223c0.325-0.855 0.705-1.54 1.1-1.979 0.163-0.182 0.48-0.486 0.773-0.486s0.61 0.304 0.773 0.486c0.395 0.439 0.775 1.124 1.1 1.979 0.727 1.913 1.127 4.479 1.127 7.223s-0.4 5.309-1.127 7.223c-0.325 0.855-0.705 1.54-1.1 1.979-0.163 0.181-0.48 0.486-0.773 0.486zM7.869 13.414c0-1.623 0.119-3.201 0.345-4.659-1.48 0.205-2.779 0.323-4.386 0.323-2.096 0-2.096 0-2.096 0l-1.733 2.959v2.755l1.733 2.959c0 0 0 0 2.096 0 1.606 0 2.905 0.118 4.386 0.323-0.226-1.458-0.345-3.036-0.345-4.659zM11.505 20.068l-4-0.766 2.558 10.048c0.132 0.52 0.648 0.782 1.146 0.583l3.705-1.483c0.498-0.199 0.698-0.749 0.444-1.221l-3.853-7.161zM27.026 17.148c-0.113 0-0.235-0.117-0.298-0.187-0.152-0.169-0.299-0.433-0.424-0.763-0.28-0.738-0.434-1.726-0.434-2.784s0.154-2.046 0.434-2.784c0.125-0.33 0.272-0.593 0.424-0.763 0.063-0.070 0.185-0.187 0.298-0.187s0.235 0.117 0.298 0.187c0.152 0.169 0.299 0.433 0.424 0.763 0.28 0.737 0.434 1.726 0.434 2.784s-0.154 2.046-0.434 2.784c-0.125 0.33-0.272 0.593-0.424 0.763-0.063 0.070-0.185 0.187-0.298 0.187z"></path>
</symbol>
<symbol id="icon-envelop" viewBox="0 0 32 32">
<title>envelop</title>
<path d="M29 4h-26c-1.65 0-3 1.35-3 3v20c0 1.65 1.35 3 3 3h26c1.65 0 3-1.35 3-3v-20c0-1.65-1.35-3-3-3zM12.461 17.199l-8.461 6.59v-15.676l8.461 9.086zM5.512 8h20.976l-10.488 7.875-10.488-7.875zM12.79 17.553l3.21 3.447 3.21-3.447 6.58 8.447h-19.579l6.58-8.447zM19.539 17.199l8.461-9.086v15.676l-8.461-6.59z"></path>
</symbol>
<symbol id="icon-zoom-in" viewBox="0 0 32 32">
<title>zoom-in</title>
<path d="M31.008 27.231l-7.58-6.447c-0.784-0.705-1.622-1.029-2.299-0.998 1.789-2.096 2.87-4.815 2.87-7.787 0-6.627-5.373-12-12-12s-12 5.373-12 12 5.373 12 12 12c2.972 0 5.691-1.081 7.787-2.87-0.031 0.677 0.293 1.515 0.998 2.299l6.447 7.58c1.104 1.226 2.907 1.33 4.007 0.23s0.997-2.903-0.23-4.007zM12 20c-4.418 0-8-3.582-8-8s3.582-8 8-8 8 3.582 8 8-3.582 8-8 8zM14 6h-4v4h-4v4h4v4h4v-4h4v-4h-4z"></path>
</symbol>
<symbol id="icon-zoom-out" viewBox="0 0 32 32">
<title>zoom-out</title>
<path d="M31.008 27.231l-7.58-6.447c-0.784-0.705-1.622-1.029-2.299-0.998 1.789-2.096 2.87-4.815 2.87-7.787 0-6.627-5.373-12-12-12s-12 5.373-12 12 5.373 12 12 12c2.972 0 5.691-1.081 7.787-2.87-0.031 0.677 0.293 1.515 0.998 2.299l6.447 7.58c1.104 1.226 2.907 1.33 4.007 0.23s0.997-2.903-0.23-4.007zM12 20c-4.418 0-8-3.582-8-8s3.582-8 8-8 8 3.582 8 8-3.582 8-8 8zM6 10h12v4h-12z"></path>
</symbol>
<symbol id="icon-download3" viewBox="0 0 32 32">
<title>download3</title>
<path d="M23 14l-8 8-8-8h5v-12h6v12zM15 22h-15v8h30v-8h-15zM28 26h-4v-2h4v2z"></path>
</symbol>
<symbol id="icon-earth" viewBox="0 0 32 32">
<title>earth</title>
<path d="M16 0c-8.837 0-16 7.163-16 16s7.163 16 16 16 16-7.163 16-16-7.163-16-16-16zM16 30c-1.967 0-3.84-0.407-5.538-1.139l7.286-8.197c0.163-0.183 0.253-0.419 0.253-0.664v-3c0-0.552-0.448-1-1-1-3.531 0-7.256-3.671-7.293-3.707-0.188-0.188-0.442-0.293-0.707-0.293h-4c-0.552 0-1 0.448-1 1v6c0 0.379 0.214 0.725 0.553 0.894l3.447 1.724v5.871c-3.627-2.53-6-6.732-6-11.489 0-2.147 0.484-4.181 1.348-6h3.652c0.265 0 0.52-0.105 0.707-0.293l4-4c0.188-0.188 0.293-0.442 0.293-0.707v-2.419c1.268-0.377 2.61-0.581 4-0.581 2.2 0 4.281 0.508 6.134 1.412-0.13 0.109-0.256 0.224-0.376 0.345-1.133 1.133-1.757 2.64-1.757 4.243s0.624 3.109 1.757 4.243c1.139 1.139 2.663 1.758 4.239 1.758 0.099 0 0.198-0.002 0.297-0.007 0.432 1.619 1.211 5.833-0.263 11.635-0.014 0.055-0.022 0.109-0.026 0.163-2.541 2.596-6.084 4.208-10.004 4.208z"></path>
</symbol>
<symbol id="icon-link" viewBox="0 0 32 32">
<title>link</title>
<path d="M13.757 19.868c-0.416 0-0.832-0.159-1.149-0.476-2.973-2.973-2.973-7.81 0-10.783l6-6c1.44-1.44 3.355-2.233 5.392-2.233s3.951 0.793 5.392 2.233c2.973 2.973 2.973 7.81 0 10.783l-2.743 2.743c-0.635 0.635-1.663 0.635-2.298 0s-0.635-1.663 0-2.298l2.743-2.743c1.706-1.706 1.706-4.481 0-6.187-0.826-0.826-1.925-1.281-3.094-1.281s-2.267 0.455-3.094 1.281l-6 6c-1.706 1.706-1.706 4.481 0 6.187 0.635 0.635 0.635 1.663 0 2.298-0.317 0.317-0.733 0.476-1.149 0.476z"></path>
<path d="M8 31.625c-2.037 0-3.952-0.793-5.392-2.233-2.973-2.973-2.973-7.81 0-10.783l2.743-2.743c0.635-0.635 1.664-0.635 2.298 0s0.635 1.663 0 2.298l-2.743 2.743c-1.706 1.706-1.706 4.481 0 6.187 0.826 0.826 1.925 1.281 3.094 1.281s2.267-0.455 3.094-1.281l6-6c1.706-1.706 1.706-4.481 0-6.187-0.635-0.635-0.635-1.663 0-2.298s1.663-0.635 2.298 0c2.973 2.973 2.973 7.81 0 10.783l-6 6c-1.44 1.44-3.355 2.233-5.392 2.233z"></path>
</symbol>
<symbol id="icon-cross" viewBox="0 0 32 32">
<title>cross</title>
<path d="M31.708 25.708c-0-0-0-0-0-0l-9.708-9.708 9.708-9.708c0-0 0-0 0-0 0.105-0.105 0.18-0.227 0.229-0.357 0.133-0.356 0.057-0.771-0.229-1.057l-4.586-4.586c-0.286-0.286-0.702-0.361-1.057-0.229-0.13 0.048-0.252 0.124-0.357 0.228 0 0-0 0-0 0l-9.708 9.708-9.708-9.708c-0-0-0-0-0-0-0.105-0.104-0.227-0.18-0.357-0.228-0.356-0.133-0.771-0.057-1.057 0.229l-4.586 4.586c-0.286 0.286-0.361 0.702-0.229 1.057 0.049 0.13 0.124 0.252 0.229 0.357 0 0 0 0 0 0l9.708 9.708-9.708 9.708c-0 0-0 0-0 0-0.104 0.105-0.18 0.227-0.229 0.357-0.133 0.355-0.057 0.771 0.229 1.057l4.586 4.586c0.286 0.286 0.702 0.361 1.057 0.229 0.13-0.049 0.252-0.124 0.357-0.229 0-0 0-0 0-0l9.708-9.708 9.708 9.708c0 0 0 0 0 0 0.105 0.105 0.227 0.18 0.357 0.229 0.356 0.133 0.771 0.057 1.057-0.229l4.586-4.586c0.286-0.286 0.362-0.702 0.229-1.057-0.049-0.13-0.124-0.252-0.229-0.357z"></path>
</symbol>
<symbol id="icon-play2" viewBox="0 0 32 32">
<title>play2</title>
<path d="M16 0c-8.837 0-16 7.163-16 16s7.163 16 16 16 16-7.163 16-16-7.163-16-16-16zM16 29c-7.18 0-13-5.82-13-13s5.82-13 13-13 13 5.82 13 13-5.82 13-13 13zM12 9l12 7-12 7z"></path>
</symbol>
<symbol id="icon-pause" viewBox="0 0 32 32">
<title>pause</title>
<path d="M16 0c-8.837 0-16 7.163-16 16s7.163 16 16 16 16-7.163 16-16-7.163-16-16-16zM16 29c-7.18 0-13-5.82-13-13s5.82-13 13-13 13 5.82 13 13-5.82 13-13 13zM10 10h4v12h-4zM18 10h4v12h-4z"></path>
</symbol>
<symbol id="icon-embed2" viewBox="0 0 40 32">
<title>embed2</title>
<path d="M26 23l3 3 10-10-10-10-3 3 7 7z"></path>
<path d="M14 9l-3-3-10 10 10 10 3-3-7-7z"></path>
<path d="M21.916 4.704l2.171 0.592-6 22.001-2.171-0.592 6-22.001z"></path>
</symbol>
<symbol id="icon-facebook2" viewBox="0 0 32 32">
<title>facebook2</title>
<path d="M29 0h-26c-1.65 0-3 1.35-3 3v26c0 1.65 1.35 3 3 3h13v-14h-4v-4h4v-2c0-3.306 2.694-6 6-6h4v4h-4c-1.1 0-2 0.9-2 2v2h6l-1 4h-5v14h9c1.65 0 3-1.35 3-3v-26c0-1.65-1.35-3-3-3z"></path>
</symbol>
<symbol id="icon-instagram" viewBox="0 0 32 32">
<title>instagram</title>
<path d="M16 2.881c4.275 0 4.781 0.019 6.462 0.094 1.563 0.069 2.406 0.331 2.969 0.55 0.744 0.288 1.281 0.638 1.837 1.194 0.563 0.563 0.906 1.094 1.2 1.838 0.219 0.563 0.481 1.412 0.55 2.969 0.075 1.688 0.094 2.194 0.094 6.463s-0.019 4.781-0.094 6.463c-0.069 1.563-0.331 2.406-0.55 2.969-0.288 0.744-0.637 1.281-1.194 1.837-0.563 0.563-1.094 0.906-1.837 1.2-0.563 0.219-1.413 0.481-2.969 0.55-1.688 0.075-2.194 0.094-6.463 0.094s-4.781-0.019-6.463-0.094c-1.563-0.069-2.406-0.331-2.969-0.55-0.744-0.288-1.281-0.637-1.838-1.194-0.563-0.563-0.906-1.094-1.2-1.837-0.219-0.563-0.481-1.413-0.55-2.969-0.075-1.688-0.094-2.194-0.094-6.463s0.019-4.781 0.094-6.463c0.069-1.563 0.331-2.406 0.55-2.969 0.288-0.744 0.638-1.281 1.194-1.838 0.563-0.563 1.094-0.906 1.838-1.2 0.563-0.219 1.412-0.481 2.969-0.55 1.681-0.075 2.188-0.094 6.463-0.094zM16 0c-4.344 0-4.887 0.019-6.594 0.094-1.7 0.075-2.869 0.35-3.881 0.744-1.056 0.412-1.95 0.956-2.837 1.85-0.894 0.888-1.438 1.781-1.85 2.831-0.394 1.019-0.669 2.181-0.744 3.881-0.075 1.713-0.094 2.256-0.094 6.6s0.019 4.887 0.094 6.594c0.075 1.7 0.35 2.869 0.744 3.881 0.413 1.056 0.956 1.95 1.85 2.837 0.887 0.887 1.781 1.438 2.831 1.844 1.019 0.394 2.181 0.669 3.881 0.744 1.706 0.075 2.25 0.094 6.594 0.094s4.888-0.019 6.594-0.094c1.7-0.075 2.869-0.35 3.881-0.744 1.050-0.406 1.944-0.956 2.831-1.844s1.438-1.781 1.844-2.831c0.394-1.019 0.669-2.181 0.744-3.881 0.075-1.706 0.094-2.25 0.094-6.594s-0.019-4.887-0.094-6.594c-0.075-1.7-0.35-2.869-0.744-3.881-0.394-1.063-0.938-1.956-1.831-2.844-0.887-0.887-1.781-1.438-2.831-1.844-1.019-0.394-2.181-0.669-3.881-0.744-1.712-0.081-2.256-0.1-6.6-0.1v0z"></path>
<path d="M16 7.781c-4.537 0-8.219 3.681-8.219 8.219s3.681 8.219 8.219 8.219 8.219-3.681 8.219-8.219c0-4.537-3.681-8.219-8.219-8.219zM16 21.331c-2.944 0-5.331-2.387-5.331-5.331s2.387-5.331 5.331-5.331c2.944 0 5.331 2.387 5.331 5.331s-2.387 5.331-5.331 5.331z"></path>
<path d="M26.462 7.456c0 1.060-0.859 1.919-1.919 1.919s-1.919-0.859-1.919-1.919c0-1.060 0.859-1.919 1.919-1.919s1.919 0.859 1.919 1.919z"></path>
</symbol>
<symbol id="icon-twitter" viewBox="0 0 32 32">
<title>twitter</title>
<path d="M32 7.075c-1.175 0.525-2.444 0.875-3.769 1.031 1.356-0.813 2.394-2.1 2.887-3.631-1.269 0.75-2.675 1.3-4.169 1.594-1.2-1.275-2.906-2.069-4.794-2.069-3.625 0-6.563 2.938-6.563 6.563 0 0.512 0.056 1.012 0.169 1.494-5.456-0.275-10.294-2.888-13.531-6.862-0.563 0.969-0.887 2.1-0.887 3.3 0 2.275 1.156 4.287 2.919 5.463-1.075-0.031-2.087-0.331-2.975-0.819 0 0.025 0 0.056 0 0.081 0 3.181 2.263 5.838 5.269 6.437-0.55 0.15-1.131 0.231-1.731 0.231-0.425 0-0.831-0.044-1.237-0.119 0.838 2.606 3.263 4.506 6.131 4.563-2.25 1.762-5.075 2.813-8.156 2.813-0.531 0-1.050-0.031-1.569-0.094 2.913 1.869 6.362 2.95 10.069 2.95 12.075 0 18.681-10.006 18.681-18.681 0-0.287-0.006-0.569-0.019-0.85 1.281-0.919 2.394-2.075 3.275-3.394z"></path>
</symbol>
<symbol id="icon-flickr" viewBox="0 0 32 32">
<title>flickr</title>
<path d="M0 17c0-3.866 3.134-7 7-7s7 3.134 7 7c0 3.866-3.134 7-7 7s-7-3.134-7-7zM18 17c0-3.866 3.134-7 7-7s7 3.134 7 7c0 3.866-3.134 7-7 7s-7-3.134-7-7z"></path>
</symbol>
<symbol id="icon-behance" viewBox="0 0 32 32">
<title>behance</title>
<path d="M9.281 6.412c0.944 0 1.794 0.081 2.569 0.25 0.775 0.162 1.431 0.438 1.988 0.813 0.55 0.375 0.975 0.875 1.287 1.5 0.3 0.619 0.45 1.394 0.45 2.313 0 0.994-0.225 1.819-0.675 2.481-0.456 0.662-1.119 1.2-2.006 1.625 1.213 0.35 2.106 0.962 2.706 1.831 0.6 0.875 0.887 1.925 0.887 3.163 0 1-0.194 1.856-0.575 2.581-0.387 0.731-0.912 1.325-1.556 1.781-0.65 0.462-1.4 0.8-2.237 1.019-0.831 0.219-1.688 0.331-2.575 0.331h-9.544v-19.688h9.281zM8.719 14.363c0.769 0 1.406-0.181 1.906-0.55 0.5-0.363 0.738-0.963 0.738-1.787 0-0.456-0.081-0.838-0.244-1.131-0.169-0.294-0.387-0.525-0.669-0.688-0.275-0.169-0.588-0.281-0.956-0.344-0.356-0.069-0.731-0.1-1.113-0.1h-4.050v4.6h4.388zM8.956 22.744c0.425 0 0.831-0.038 1.213-0.125 0.387-0.087 0.731-0.219 1.019-0.419 0.287-0.194 0.531-0.45 0.706-0.788 0.175-0.331 0.256-0.756 0.256-1.275 0-1.012-0.287-1.738-0.856-2.175-0.569-0.431-1.325-0.644-2.262-0.644h-4.7v5.419h4.625z"></path>
<path d="M22.663 22.675c0.587 0.575 1.431 0.863 2.531 0.863 0.788 0 1.475-0.2 2.044-0.6s0.913-0.825 1.044-1.262h3.45c-0.556 1.719-1.394 2.938-2.544 3.675-1.131 0.738-2.519 1.113-4.125 1.113-1.125 0-2.131-0.181-3.038-0.538-0.906-0.363-1.663-0.869-2.3-1.531-0.619-0.663-1.106-1.45-1.45-2.375-0.337-0.919-0.512-1.938-0.512-3.038 0-1.069 0.175-2.063 0.525-2.981 0.356-0.925 0.844-1.719 1.494-2.387s1.413-1.2 2.313-1.588c0.894-0.387 1.881-0.581 2.975-0.581 1.206 0 2.262 0.231 3.169 0.706 0.9 0.469 1.644 1.1 2.225 1.887s0.994 1.694 1.25 2.706c0.256 1.012 0.344 2.069 0.275 3.175h-10.294c0 1.119 0.375 2.188 0.969 2.756zM27.156 15.188c-0.462-0.512-1.256-0.794-2.212-0.794-0.625 0-1.144 0.106-1.556 0.319-0.406 0.213-0.738 0.475-0.994 0.787-0.25 0.313-0.425 0.65-0.525 1.006-0.1 0.344-0.163 0.663-0.181 0.938h6.375c-0.094-1-0.438-1.738-0.906-2.256z"></path>
<path d="M20.887 8h7.981v1.944h-7.981v-1.944z"></path>
</symbol>
</defs>
</svg>
